<svg version="1" xmlns="http://www.w3.org/2000/svg" width="346.667" height="346.667" viewBox="0 0 260.000000 260.000000"><path d="M.2 129.7l.3 129.8h259l.3-129.8L260 0H0l.2 129.7zm257.6-.5L258 257H2V2l102.8-.3c56.5-.1 114-.2 127.7-.2h25l.3 127.7z"/><path d="M78.2 33.7c-1.2.2-2.9 1.5-3.7 2.7-1.4 2.1-6.8 16.2-13.5 35.1-1.5 4.4-4.4 12.3-6.3 17.5C36 140.4 27 166 27 168.3c0 2.1.7 3 2.8 3.8 3.6 1.4 12.9.6 14.8-1.3.8-.8 3.6-7.7 6.3-15.4 6-17.3 6.2-17.7 7.5-18.6.6-.4 13.1-.8 27.7-.8h26.7l3 7.7c1.7 4.3 4.2 11.2 5.7 15.3 1.4 4.1 3.1 8.5 3.7 9.7 1.5 3 7 4.7 12.6 3.9 5.1-.7 7.2-2 7.2-4.6 0-2.2-45.6-128.8-47.4-131.5-2-3-11.3-4.3-19.4-2.8zM87 60.5c.8 1.9 5.1 14 7.2 20 .5 1.6 1.4 3.9 1.9 5 .4 1.1 2.4 6.9 4.4 13 2 6 4 11.9 4.4 13 2.4 5.7 3.1 7.6 3.1 8 0 .3-10.1.5-22.5.5s-22.5-.3-22.5-.8c0-.8 2.3-7.7 13.3-39.2 8.1-23.2 8.8-24.9 9.4-23 .2.8.8 2.4 1.3 3.5zM162.1 83.9c-2.1 2.1-2.1 2.3-2.1 66.5v64.5l2.4 2.8 2.4 2.7 32.3-.2c19.5-.2 32.8-.7 33.4-1.3 1.4-1.4 1.1-11.4-.4-13.3-1.2-1.4-4.4-1.6-22.5-1.6-11.6 0-22.8-.3-24.8-.6l-3.8-.7v-58.6c0-33.7-.4-59.2-.9-60-.6-1-3.2-1.6-7.4-1.9-5.6-.4-6.8-.1-8.6 1.7z"/></svg>